<?xml version="1.0" encoding="UTF-8" standalone="no"?>
<!DOCTYPE svg PUBLIC "-//W3C//DTD SVG 1.1//EN" "http://www.w3.org/Graphics/SVG/1.1/DTD/svg11.dtd">
<svg xmlns="http://www.w3.org/2000/svg" xmlns:xlink="http://www.w3.org/1999/xlink" version="1.1" width="792pt" height="339.57pt" viewBox="0 0 792 339.57">
<g enable-background="new">
<clipPath id="cp0">
<path transform="matrix(1,0,0,-1,0,612)" d="M 0 0 L 792 0 L 792 612 L 0 612 Z "/>
</clipPath>
<g clip-path="url(#cp0)">
<clipPath id="cp1">
<path d="M 0 0 L 792 0 L 792 612 L 0 612 Z " fill-rule="evenodd"/>
</clipPath>
<g clip-path="url(#cp1)">
<path transform="matrix(.75,0,0,.75,0,0)" d="M 0 0 L 1056 0 L 1056 816 L 0 816 Z " fill="#081212"/>
</g>
<clipPath id="cp2">
<path d="M 0 0 L 792 0 L 792 612 L 0 612 Z " fill-rule="evenodd"/>
</clipPath>
<g clip-path="url(#cp2)">
<symbol id="font_3_af4">
<path d="M .044 .77000007 L .24400002 .77000007 L .24400002 .88400009 L .367 .88400009 L .367 .77000007 L .79 .77000007 L .79 .66400006 L .367 .66400006 L .367 .574 C .40100003 .578 .43666674 .58000007 .47400005 .58000007 C .5886667 .58000007 .67733338 .55500009 .74 .50500008 C .80266669 .455 .83400008 .3866667 .83400008 .3 C .83400008 .22466667 .8080001 .16000001 .75600007 .106000009 C .704 .052666677 .6333334 .017333337 .544 0 L .51000007 .11400001 C .57 .12666668 .6176667 .15000002 .65300008 .18400002 C .68900009 .21800001 .707 .2566667 .707 .3 C .707 .36133338 .6826667 .40600003 .634 .43400003 C .588 .31333337 .52466669 .21900003 .444 .15100001 C .36333335 .083666678 .28 .05 .194 .050000006 C .13533335 .05 .08833334 .06733334 .053000004 .102000009 C .017666668 .13733334 0 .18466668 0 .24400002 C 0 .312 .021333332 .37233339 .063999999 .425 C .10666666 .4776667 .16666667 .51766666 .24400002 .545 L .24400002 .66400006 L .044 .66400006 L .044 .77000007 M .51900008 .46500004 C .50033339 .46633337 .48533336 .467 .47400005 .467 C .43600003 .467 .40033333 .464 .367 .458 L .367 .23800002 C .431 .29533337 .48166669 .37100003 .51900008 .46500004 M .24400002 .417 C .16600001 .3756667 .127 .32233338 .127 .25700004 C .127 .22700002 .134 .20400001 .148 .18800003 C .162 .172 .18166667 .164 .20700002 .164 C .22033334 .164 .23266667 .16533335 .24400002 .16800002 L .24400002 .417 Z "/>
</symbol>
<symbol id="font_3_af6">
<path d="M .55700007 .71900007 L .68000009 .755 C .7713334 .57100006 .8170001 .35500003 .81700006 .10700001 L .6840001 .10700001 C .6840001 .21433334 .6726667 .32133333 .65000006 .428 C .628 .53466668 .59700009 .63166669 .55700007 .71900007 M .18 .73300006 C .14933335 .62766668 .134 .51566669 .134 .397 C .134 .323 .14566668 .2606667 .169 .21000001 C .193 .15933334 .21666669 .134 .24000001 .134 C .2566667 .134 .279 .15300001 .307 .19100002 C .335 .22900002 .3626667 .28333334 .39000003 .354 L .507 .30900003 C .47366668 .21233334 .431 .13666667 .379 .082 C .327 .027333335 .27733336 0 .22999999 0 C .17333333 0 .120666678 .03866667 .072000008 .11600001 C .024000003 .19333335 0 .28700004 0 .397 C 0 .5223334 .016666668 .63933339 .050000006 .748 L .18 .73300006 Z "/>
</symbol>
<use xlink:href="#font_3_af4" transform="matrix(65,0,0,-65,77.53258,124.48125)" fill="#00c0bd"/>
<use xlink:href="#font_3_af6" transform="matrix(65,0,0,-65,143.82483,122.53125)" fill="#00c0bd"/>
<symbol id="font_3_b1d">
<path d="M .337 .63400009 L .337 .75100007 L .767 .75100007 L .767 .63400009 L .337 .63400009 M .181 .8130001 C .149 .69100007 .13300002 .558 .13300002 .414 C .13300002 .27 .149 .13700001 .181 .015000001 L .050000006 0 C .016666668 .12733335 0 .26533333 0 .414 C 0 .5626667 .016666668 .7006667 .050000006 .82800009 L .181 .8130001 M .776 .187 L .794 .071 C .718 .051 .639 .041 .55700007 .041 C .46300004 .041 .38866667 .059 .33400003 .095 C .28 .13166668 .253 .18033333 .253 .24100001 C .253 .27033333 .264 .30466668 .286 .344 C .30866669 .38400004 .33933334 .42133335 .37800003 .456 L .472 .381 C .44466666 .3543333 .42333333 .32866667 .408 .304 C .39266668 .28 .38500003 .26066668 .38500003 .246 C .38500003 .18933334 .44233338 .16100002 .55700007 .16100002 C .629 .16100002 .70199999 .1696667 .776 .187 Z "/>
</symbol>
<symbol id="font_3_b35">
<path d="M .328 .67 L .44200004 .70100006 C .4493334 .67633339 .46033339 .6373334 .47500003 .58400008 C .50633338 .5900001 .532 .59300008 .55200007 .59300008 C .60800006 .59300008 .65333339 .5756667 .688 .541 C .72266677 .507 .74000009 .4616667 .74000009 .40500004 C .74000009 .341 .7206667 .291 .68200007 .255 C .64400008 .219 .5923334 .20100002 .52700009 .201 C .4916667 .20100002 .4593334 .20433335 .43000008 .21100001 L .44100005 .31700004 C .47033335 .3116667 .49666668 .30900003 .52000007 .30900003 C .55 .30900003 .57400009 .317 .59200009 .333 C .61066678 .349 .62000009 .37100003 .62000009 .39900003 C .62000009 .42633335 .61233338 .44733335 .59700009 .462 C .5816667 .4766667 .5596667 .48400007 .531 .48400004 C .51966676 .48400007 .51033338 .48333336 .503 .48200003 C .51500007 .438 .5236667 .40600003 .52900007 .386 L .42100007 .35500003 C .41566674 .375 .40633337 .40700004 .39300008 .45100004 C .37900005 .44633339 .3466667 .43466673 .296 .416 C .33533336 .28333334 .37133337 .15366668 .40400005 .027000003 L .287 0 C .25433336 .12866669 .22033336 .25333337 .18500002 .374 C .12566668 .35066668 .077333349 .33133338 .040000008 .316 L 0 .418 C .082666669 .45133338 .13366668 .4716667 .15300001 .47900004 C .13700003 .5323334 .12066668 .58433338 .104 .63500007 L .21700002 .669 C .21900003 .66233339 .22600001 .6406667 .23800002 .60400006 C .25000004 .5673334 .25900004 .53933337 .26500006 .52000007 C .30033336 .53333339 .33300004 .5446667 .36300005 .554 C .3596667 .56533339 .354 .58400008 .34600003 .61 C .33799998 .6366667 .332 .6566667 .328 .67 Z "/>
</symbol>
<use xlink:href="#font_3_b1d" transform="matrix(65,0,0,-65,209.27207,122.98625)" fill="#008886"/>
<use xlink:href="#font_3_b35" transform="matrix(65,0,0,-65,275.30433,123.96125)" fill="#008886"/>
<symbol id="font_3_b01">
<path d="M .518 .898 L .6 .797 C .47466669 .7023334 .35700003 .62000009 .24700001 .55 C .20700002 .5246667 .18133335 .50733336 .17000002 .49800004 C .15866667 .48866669 .153 .479 .153 .46900005 C .153 .45966674 .158 .45033337 .16800002 .44100005 C .17800002 .4316667 .20133333 .41466675 .238 .39000006 C .36866669 .30133338 .49933339 .20333337 .63 .096 L .541 0 C .40633337 .10933334 .27933336 .205 .16 .287 C .08733333 .33699999 .042333336 .37166668 .025000006 .39100004 C .008333336 .41033338 0 .43633334 0 .46900005 C 0 .5043333 .008999999 .5316667 .026999996 .551 C .045 .57033339 .09033334 .6033334 .16300002 .65000006 C .2836667 .728 .40200005 .81066676 .518 .898 Z "/>
</symbol>
<use xlink:href="#font_3_b01" transform="matrix(65,0,0,-65,341.85658,125.26125)" fill="#00c0bd"/>
<symbol id="font_4_236">
<path d="M .21600002 .919 L .31300003 .919 L .097 0 L 0 0 L .21600002 .919 Z "/>
</symbol>
<use xlink:href="#font_4_236" transform="matrix(71,0,0,-71,412.3959,126.00825)" fill="#008886"/>
<symbol id="font_4_4">
<path d="M .363 .73600009 L .717 0 L .588 0 L .525 .14400001 L .18800001 .14400001 L .125 0 L 0 0 L .35200004 .73600009 L .363 .73600009 M .31300003 .423 L .23300001 .245 L .48100005 .245 L .402 .42200003 L .35900004 .523 L .35700003 .523 L .31300003 .423 Z "/>
</symbol>
<symbol id="font_4_13c">
<path d="M .018 .45900003 L .13000001 .45900003 L .13000001 0 L .018 0 L .018 .45900003 M .073 .545 C .052333338 .545 .035 .55200007 .020999998 .56600007 C .0069999995 .58 0 .5973334 0 .61800006 C 0 .6366667 .0069999995 .6526667 .020999998 .666 C .035 .6793334 .052333338 .68600007 .073 .68600007 C .092999998 .68600007 .10999999 .6793334 .124 .666 C .13800001 .6526667 .14500001 .6366667 .14500001 .61800006 C .14500001 .5973334 .13800001 .58 .124 .56600007 C .11066667 .55200007 .09366667 .545 .073 .545 Z "/>
</symbol>
<use xlink:href="#font_4_4" transform="matrix(71,0,0,-71,456.1264,119.47625)" fill="#00c0bd"/>
<use xlink:href="#font_4_13c" transform="matrix(71,0,0,-71,510.22303,119.47625)" fill="#00c0bd"/>
<symbol id="font_4_15e">
<path d="M 0 .45900003 L .106 .45900003 L .107 .37500004 C .11966667 .40300004 .13966668 .42600004 .167 .44400005 C .19433333 .462 .22633334 .47100006 .263 .47100003 C .31033335 .47100006 .3466667 .461 .372 .441 C .39733336 .4216667 .41433335 .39433337 .423 .35900004 C .4316667 .3236667 .43600003 .2776667 .43600003 .22100002 L .43600003 0 L .328 0 L .328 .21800001 C .328 .276 .32233335 .31766669 .31100003 .34300003 C .29966668 .36900006 .27633334 .38200007 .241 .38200004 C .221 .38200007 .20066667 .3756667 .18 .363 C .15933335 .35100005 .14200002 .33333335 .12800002 .31 C .11466668 .28666667 .108 .25933335 .108 .22800002 L .108 0 L 0 0 L 0 .45900003 Z "/>
</symbol>
<symbol id="font_4_1c8">
<path d="M .19000001 .238 L 0 .711 L .12200001 .711 L .22000002 .41900004 L .24200003 .348 L .264 .41900004 L .367 .711 L .485 .711 L .20300001 0 L .091000009 0 L .19000001 .238 Z "/>
</symbol>
<symbol id="font_4_ed">
<path d="M .23000002 0 C .18866669 0 .15033335 .009666667 .11500001 .029000003 C .080333348 .049000008 .05233334 .077 .031 .113000009 C .010333333 .14966668 0 .19233334 0 .24100001 C 0 .289 .009 .331 .026999999 .367 C .04566667 .403 .072000008 .431 .106000009 .451 C .14 .471 .18 .48100005 .22600001 .481 C .25266669 .48100005 .2776667 .47633336 .30100004 .467 C .32433335 .45766668 .344 .446 .36 .432 C .37600003 .4186667 .3866667 .40533338 .39200003 .39200003 L .39400003 .469 L .497 .469 L .497 .010000001 L .395 .010000001 L .393 .091 C .38166667 .067 .36100004 .04566667 .33100004 .027000003 C .30100004 .009000001 .26733337 0 .23000002 0 M .24800003 .09 C .286 .09 .318 .10300001 .344 .12900001 C .37 .15566668 .38300003 .19033335 .38300003 .23300001 L .38300003 .24000001 C .38300003 .26866666 .377 .29433335 .365 .317 C .35300002 .3396667 .3366667 .35733334 .316 .37 C .29533337 .38266669 .2726667 .38900004 .24800003 .389 C .20533335 .38900004 .17233335 .375 .149 .347 C .12566668 .31966666 .114 .284 .11400001 .24000001 C .114 .19533335 .12533334 .15900001 .148 .13100001 C .17133336 .10366667 .20466669 .09 .24800003 .09 Z "/>
</symbol>
<use xlink:href="#font_4_15e" transform="matrix(71,0,0,-71,530.1009,119.47625)" fill="#008886"/>
<use xlink:href="#font_4_1c8" transform="matrix(71,0,0,-71,566.80337,137.36826)" fill="#008886"/>
<use xlink:href="#font_4_ed" transform="matrix(71,0,0,-71,604.28756,120.18625)" fill="#008886"/>
<symbol id="font_4_150">
<path d="M .41000004 0 L .28300003 0 L .19 .15 L .164 .201 L .104 .136 L .104 0 L 0 0 L 0 .735 L .103 .735 L .103 .33200003 L .100999999 .254 L .27600003 .45900003 L .409 .45900003 L .236 .26700003 L .41000004 0 Z "/>
</symbol>
<symbol id="font_4_1aa">
<path d="M .16600001 0 C .102666679 0 .059000005 .018666668 .035000005 .056000007 C .011666668 .093333337 0 .14533334 0 .21200001 L 0 .469 L .108 .469 L .108 .23900002 C .108 .20100002 .11000001 .17133336 .114 .15 C .11866667 .12933333 .12733335 .114 .14000002 .104 C .15333334 .094000007 .173 .08900001 .199 .089 C .21766667 .08900001 .23566668 .09433333 .253 .105000007 C .27033333 .115666668 .28433336 .13000001 .29500003 .14800002 C .30633334 .16666669 .312 .18700002 .312 .20900002 L .312 .469 L .419 .469 L .419 .010000001 L .331 .010000001 L .319 .077 C .30233334 .051 .28133334 .03166667 .256 .019000002 C .23133333 .006333334 .20133335 0 .16600001 0 Z "/>
</symbol>
<use xlink:href="#font_4_150" transform="matrix(71,0,0,-71,650.21969,119.47625)" fill="#00c0bd"/>
<use xlink:href="#font_4_1aa" transform="matrix(71,0,0,-71,684.93478,120.18625)" fill="#00c0bd"/>
<use xlink:href="#font_3_af4" transform="matrix(16,0,0,-16,308.6156,179.3095)" fill="#00c0bd"/>
<use xlink:href="#font_3_af6" transform="matrix(16,0,0,-16,324.93177,178.8295)" fill="#00c0bd"/>
<use xlink:href="#font_3_b1d" transform="matrix(16,0,0,-16,341.03993,178.9415)" fill="#008886"/>
<use xlink:href="#font_3_b35" transform="matrix(16,0,0,-16,357.29209,179.1815)" fill="#008886"/>
<use xlink:href="#font_3_b01" transform="matrix(16,0,0,-16,373.67225,179.5015)" fill="#00c0bd"/>
<use xlink:href="#font_4_236" transform="matrix(22,0,0,-22,389.44767,180.1015)" fill="#008886"/>
<use xlink:href="#font_4_4" transform="matrix(22,0,0,-22,402.9969,178.0775)" fill="#00c0bd"/>
<use xlink:href="#font_4_13c" transform="matrix(22,0,0,-22,419.7582,178.0775)" fill="#00c0bd"/>
<use xlink:href="#font_4_15e" transform="matrix(22,0,0,-22,425.91719,178.0775)" fill="#008886"/>
<use xlink:href="#font_4_1c8" transform="matrix(22,0,0,-22,437.2889,183.6215)" fill="#008886"/>
<use xlink:href="#font_4_ed" transform="matrix(22,0,0,-22,448.90293,178.2975)" fill="#008886"/>
<use xlink:href="#font_4_150" transform="matrix(22,0,0,-22,463.13453,178.0775)" fill="#00c0bd"/>
<use xlink:href="#font_4_1aa" transform="matrix(22,0,0,-22,473.89054,178.2975)" fill="#00c0bd"/>
<path transform="matrix(.75,0,0,.75,72,342.2005)" stroke-width="1" stroke-linecap="butt" stroke-miterlimit="10" stroke-linejoin="miter" fill="none" stroke="#888888" d="M 4 -1.5 L 860 -1.5 "/>
</g>
</g>
</g>
</svg>
